<svg width="24.000000" height="24.000000" viewBox="0 0 24 24" fill="none" xmlns="http://www.w3.org/2000/svg" xmlns:xlink="http://www.w3.org/1999/xlink">
	<desc>
			Created with Pixso.
	</desc>
	<defs>
		<clipPath id="clip26_107">
			<rect id="ic:outline-phone-iphone" rx="0.000000" width="23.000000" height="23.000000" transform="translate(0.500000 0.500000)" fill="white" fill-opacity="0"/>
		</clipPath>
	</defs>
	<rect id="ic:outline-phone-iphone" rx="0.000000" width="23.000000" height="23.000000" transform="translate(0.500000 0.500000)" fill="#FFFFFF" fill-opacity="0"/>
	<g clip-path="url(#clip26_107)">
		<path id="Vector" d="M15.5 1L7.5 1C6.83 1 6.2 1.26 5.73 1.73C5.26 2.2 5 2.83 5 3.5L5 20.5C5 21.16 5.26 21.79 5.73 22.26C6.2 22.73 6.83 23 7.5 23L15.5 23C16.16 23 16.79 22.73 17.26 22.26C17.73 21.79 18 21.16 18 20.5L18 3.5C18 2.83 17.73 2.2 17.26 1.73C16.79 1.26 16.16 1 15.5 1ZM11.5 22C10.67 22 10 21.33 10 20.5C10 19.66 10.67 19 11.5 19C12.33 19 13 19.66 13 20.5C13 21.33 12.33 22 11.5 22ZM16 18L7 18L7 4L16 4L16 18Z" fill="#000000" fill-opacity="1.000000" fill-rule="nonzero"/>
	</g>
</svg>
