<svg width="24.000000" height="24.000000" viewBox="0 0 24 24" fill="none" xmlns="http://www.w3.org/2000/svg" xmlns:xlink="http://www.w3.org/1999/xlink">
	<desc>
			Created with Pixso.
	</desc>
	<defs>
		<clipPath id="clip1895_92">
			<rect id="material-symbols:mail-outline-rounded" rx="0.000000" width="23.000000" height="23.000000" transform="translate(0.500000 0.500000)" fill="white" fill-opacity="0"/>
		</clipPath>
	</defs>
	<rect id="material-symbols:mail-outline-rounded" rx="0.000000" width="23.000000" height="23.000000" transform="translate(0.500000 0.500000)" fill="#FFFFFF" fill-opacity="0"/>
	<g clip-path="url(#clip1895_92)">
		<path id="Vector" d="M4 20C3.44 20 2.97 19.8 2.58 19.41C2.19 19.02 2 18.54 2 18L2 6C2 5.44 2.19 4.97 2.58 4.58C2.97 4.19 3.44 4 4 4L20 4C20.55 4 21.02 4.19 21.41 4.58C21.8 4.97 22 5.44 22 6L22 18C22 18.54 21.8 19.02 21.41 19.41C21.02 19.8 20.55 20 20 20L4 20ZM20 8L12.52 12.67C12.44 12.72 12.35 12.76 12.26 12.78C12.17 12.81 12.08 12.82 12 12.82C11.91 12.82 11.82 12.81 11.73 12.78C11.64 12.76 11.55 12.72 11.47 12.67L4 8L4 18L20 18L20 8ZM12 11L20 6L4 6L12 11ZM4 8.25L4 6.77L4 6.8L4 6.78L4 8.25Z" fill="#000000" fill-opacity="1.000000" fill-rule="nonzero"/>
	</g>
</svg>
