<svg width="50.000000" height="50.000000" viewBox="0 0 50 50" fill="none" xmlns="http://www.w3.org/2000/svg" xmlns:xlink="http://www.w3.org/1999/xlink">
	<desc>
			Created with Pixso.
	</desc>
	<defs>
		<clipPath id="clip1895_135">
			<rect id="radix-icons:cross-2" rx="0.000000" width="44.666668" height="44.666668" transform="translate(2.666667 2.666667)" fill="white" fill-opacity="0"/>
		</clipPath>
	</defs>
	<rect id="radix-icons:cross-2" rx="0.000000" width="44.666668" height="44.666668" transform="translate(2.666667 2.666667)" fill="#FFFFFF" fill-opacity="0"/>
	<g clip-path="url(#clip1895_135)">
		<path id="Vector" d="M39.27 13.44C39.45 13.26 39.59 13.05 39.68 12.81C39.78 12.58 39.83 12.33 39.83 12.08C39.83 11.83 39.78 11.58 39.69 11.35C39.59 11.11 39.45 10.9 39.27 10.72C39.09 10.55 38.88 10.4 38.65 10.31C38.42 10.21 38.17 10.16 37.91 10.16C37.66 10.16 37.41 10.21 37.18 10.31C36.95 10.4 36.74 10.54 36.56 10.72L25 22.29L13.44 10.72C13.08 10.36 12.59 10.16 12.08 10.16C11.57 10.16 11.08 10.36 10.72 10.72C10.36 11.08 10.16 11.57 10.16 12.08C10.16 12.59 10.36 13.08 10.72 13.44L22.29 25L10.72 36.56C10.54 36.73 10.4 36.94 10.31 37.18C10.21 37.41 10.16 37.66 10.16 37.91C10.16 38.16 10.21 38.41 10.31 38.65C10.4 38.88 10.54 39.09 10.72 39.27C11.08 39.63 11.57 39.83 12.08 39.83C12.33 39.83 12.58 39.78 12.81 39.68C13.05 39.59 13.26 39.45 13.44 39.27L25 27.71L36.56 39.27C36.92 39.63 37.41 39.83 37.91 39.83C38.42 39.83 38.91 39.63 39.27 39.27C39.63 38.91 39.83 38.42 39.83 37.91C39.83 37.4 39.63 36.91 39.27 36.56L27.71 25L39.27 13.44Z" fill="#000000" fill-opacity="1.000000" fill-rule="evenodd"/>
	</g>
</svg>
